<svg xmlns="http://www.w3.org/2000/svg" id="artboard-svg" width="164" height="62" viewBox="0 0 164 62"><defs><style>.cls-1, .cls-4 { fill: none; } .cls-2 { clip-path: url(#clip-login); } .cls-3 { clip-path: url(#clip-path); } .cls-4 { stroke: #000; opacity: 0.35; } .cls-25, .cls-27, .cls-4 { stroke-miterlimit: 10; } .cls-5 { opacity: 0.4; } .cls-6 { fill: rgba(0,0,0,0); } .cls-7 { font-size: 14px; font-family: SegoeUI, Segoe UI; } .cls-8 { letter-spacing: -0.02em; } .cls-9 { fill: #8b959a; } .cls-23, .cls-9 { font-size: 13px; } .cls-23, .cls-29, .cls-9 { font-family: Montserrat-Regular, Montserrat; } .cls-10 { fill: #f2f2f2; } .cls-11, .cls-28 { fill: #64c8ef; } .cls-12 { opacity: 0.1; } .cls-13 { fill: #3f3d56; } .cls-14 { fill: #6c63ff; } .cls-15 { fill: #575a89; } .cls-16 { fill: #ffc1c7; } .cls-17 { fill: #ff6584; } .cls-18 { fill: #fbbebe; } .cls-19 { fill: #5f5478; } .cls-20 { fill: #d4a1a1; } .cls-21, .cls-29 { fill: #fff; } .cls-22 { fill: #e0aaaa; } .cls-23 { fill: #a3a3a3; letter-spacing: -0.024em; } .cls-24 { fill: #68cefb; font-family: Montserrat-Medium, Montserrat; font-weight: 500; } .cls-25 { fill: #3b5998; } .cls-25, .cls-27 { stroke: #e2e6ea; } .cls-26 { fill: #062f76; } .cls-27 { fill: #dd4f43; } .cls-29 { font-size: 17px; } .cls-30, .cls-31 { stroke: none; } .cls-31 { fill: #e2e6ea; }</style><clipPath id="clip-path"><path d="M0 0h414v44H0z" class="cls-1"/></clipPath><clipPath id="clip-login"><path d="M0 0h414v736H0z"/></clipPath></defs><g transform="translate(-33 -471)"><g id="login" class="cls-2"><g id="compte_google" data-name="compte google"><g id="BG-2" data-name="BG" transform="translate(-617 171)"><g id="Rectangle_31" class="cls-27" data-name="Rectangle 31" transform="translate(651 301)"><rect width="162" height="60" class="cls-30" rx="5"/><rect width="161" height="59" x=".5" y=".5" class="cls-1" rx="4.5"/></g></g><g id="G" transform="translate(203 1111)"><path id="Tracé_10204" d="M6.7 148.379l-1.049 3.931-3.849.081a15.151 15.151 0 0 1-.111-14.124l3.426.628 1.5 3.406a9.027 9.027 0 0 0 .085 6.077z" class="cls-21" data-name="Tracé 10204" transform="translate(-103 -754.099)"/><path id="Tracé_10205" d="M276.156 208.176a15.119 15.119 0 0 1-5.392 14.621l-4.316-.22-.611-3.813a9.015 9.015 0 0 0 3.879-4.6h-8.088v-5.984h14.528z" class="cls-21" data-name="Tracé 10205" transform="translate(-349.17 -819.877)"/><path id="Tracé_10206" d="M53.3 318.048a15.13 15.13 0 0 1-22.791-4.627l4.9-4.012a9 9 0 0 0 12.963 4.606z" class="cls-21" data-name="Tracé 10206" transform="translate(-131.706 -915.128)"/><path id="Tracé_10207" d="M51.712 3.482l-4.9 4.011a8.994 8.994 0 0 0-13.26 4.71l-4.927-4.034a15.128 15.128 0 0 1 23.087-4.687z" class="cls-21" data-name="Tracé 10207" transform="translate(-129.933 -624)"/></g></g></g></g></svg>