<svg xmlns="http://www.w3.org/2000/svg" id="artboard-svg" width="164" height="62" viewBox="0 0 164 62"><defs><style>.cls-1, .cls-4 { fill: none; } .cls-2 { clip-path: url(#clip-login); } .cls-3 { clip-path: url(#clip-path); } .cls-4 { stroke: #000; opacity: 0.35; } .cls-25, .cls-27, .cls-4 { stroke-miterlimit: 10; } .cls-5 { opacity: 0.4; } .cls-6 { fill: rgba(0,0,0,0); } .cls-7 { font-size: 14px; font-family: SegoeUI, Segoe UI; } .cls-8 { letter-spacing: -0.02em; } .cls-9 { fill: #8b959a; } .cls-23, .cls-9 { font-size: 13px; } .cls-23, .cls-29, .cls-9 { font-family: Montserrat-Regular, Montserrat; } .cls-10 { fill: #f2f2f2; } .cls-11, .cls-28 { fill: #64c8ef; } .cls-12 { opacity: 0.1; } .cls-13 { fill: #3f3d56; } .cls-14 { fill: #6c63ff; } .cls-15 { fill: #575a89; } .cls-16 { fill: #ffc1c7; } .cls-17 { fill: #ff6584; } .cls-18 { fill: #fbbebe; } .cls-19 { fill: #5f5478; } .cls-20 { fill: #d4a1a1; } .cls-21, .cls-29 { fill: #fff; } .cls-22 { fill: #e0aaaa; } .cls-23 { fill: #a3a3a3; letter-spacing: -0.024em; } .cls-24 { fill: #68cefb; font-family: Montserrat-Medium, Montserrat; font-weight: 500; } .cls-25 { fill: #3b5998; } .cls-25, .cls-27 { stroke: #e2e6ea; } .cls-26 { fill: #062f76; } .cls-27 { fill: #dd4f43; } .cls-29 { font-size: 17px; } .cls-30, .cls-31 { stroke: none; } .cls-31 { fill: #e2e6ea; }</style><clipPath id="clip-path"><path d="M0 0h414v44H0z" class="cls-1"/></clipPath><clipPath id="clip-login"><path d="M0 0h414v736H0z"/></clipPath></defs><g transform="translate(-216 -471)"><g id="login" class="cls-2"><g id="compte_facebook" data-name="compte facebook"><g id="compte_facebook-2" data-name="compte facebook" transform="translate(-434 171)"><g id="BG" class="cls-25" transform="translate(651 301)"><rect width="162" height="60" class="cls-30" rx="5"/><rect width="161" height="59" x=".5" y=".5" class="cls-1" rx="4.5"/></g><path id="F" d="M25.959 0H4.045A4.043 4.043 0 0 0 0 4.043v21.914A4.043 4.043 0 0 0 4.045 30h10.808l.018-10.72h-2.785a.657.657 0 0 1-.657-.655l-.013-3.456a.657.657 0 0 1 .657-.66h2.78v-3.338c0-3.875 2.367-5.985 5.823-5.985h2.836a.657.657 0 0 1 .657.657v2.914a.657.657 0 0 1-.657.657h-1.74c-1.88 0-2.244.893-2.244 2.2v2.896h4.131a.657.657 0 0 1 .653.735L23.9 18.7a.657.657 0 0 1-.653.58h-3.7L19.528 30h6.431A4.042 4.042 0 0 0 30 25.958V4.043A4.043 4.043 0 0 0 25.959 0z" class="cls-21" transform="translate(716.998 315.995)"/></g></g></g></g></svg>