<svg xmlns="http://www.w3.org/2000/svg" id="artboard-svg" width="347" height="62" viewBox="0 0 347 62"><defs><style>.cls-1, .cls-4 { fill: none; } .cls-2 { clip-path: url(#clip-login); } .cls-3 { clip-path: url(#clip-path); } .cls-4 { stroke: #000; opacity: 0.35; } .cls-25, .cls-27, .cls-4 { stroke-miterlimit: 10; } .cls-5 { opacity: 0.4; } .cls-6 { fill: rgba(0,0,0,0); } .cls-7 { font-size: 14px; font-family: SegoeUI, Segoe UI; } .cls-8 { letter-spacing: -0.02em; } .cls-9 { fill: #8b959a; } .cls-23, .cls-9 { font-size: 13px; } .cls-23, .cls-29, .cls-9 { font-family: Montserrat-Regular, Montserrat; } .cls-10 { fill: #f2f2f2; } .cls-11, .cls-28 { fill: #64c8ef; } .cls-12 { opacity: 0.1; } .cls-13 { fill: #3f3d56; } .cls-14 { fill: #6c63ff; } .cls-15 { fill: #575a89; } .cls-16 { fill: #ffc1c7; } .cls-17 { fill: #ff6584; } .cls-18 { fill: #fbbebe; } .cls-19 { fill: #5f5478; } .cls-20 { fill: #d4a1a1; } .cls-21, .cls-29 { fill: #fff; } .cls-22 { fill: #e0aaaa; } .cls-23 { fill: #a3a3a3; letter-spacing: -0.024em; } .cls-24 { fill: #68cefb; font-family: Montserrat-Medium, Montserrat; font-weight: 500; } .cls-25 { fill: #3b5998; } .cls-25, .cls-27 { stroke: #e2e6ea; } .cls-26 { fill: #062f76; } .cls-27 { fill: #dd4f43; } .cls-29 { font-size: 17px; } .cls-30, .cls-31 { stroke: none; } .cls-31 { fill: #e2e6ea; }</style><clipPath id="clip-path"><path d="M0 0h414v44H0z" class="cls-1"/></clipPath><clipPath id="clip-login"><path d="M0 0h414v736H0z"/></clipPath></defs><g transform="translate(-33 -610)"><g id="login" class="cls-2"><g id="connecter_par_email" data-name="connecter par email"><g id="Groupe_10445" data-name="Groupe 10445" transform="translate(-9343 15223)"><g id="Rectangle_31-2" class="cls-28" data-name="Rectangle 31"><path d="M340 59.5H5A4.505 4.505 0 0 1 .5 55V5C.5 2.519 2.519.5 5 .5h335c2.481 0 4.5 2.019 4.5 4.5v50c0 2.481-2.019 4.5-4.5 4.5z" class="cls-30" transform="translate(9377 -14612)"/><path d="M5 1C2.794 1 1 2.794 1 5v50c0 2.206 1.794 4 4 4h335c2.206 0 4-1.794 4-4V5c0-2.206-1.794-4-4-4H5m0-1h335a5 5 0 0 1 5 5v50a5 5 0 0 1-5 5H5a5 5 0 0 1-5-5V5a5 5 0 0 1 5-5z" class="cls-31" transform="translate(9377 -14612)"/></g><text id="Enter_your_full_name" class="cls-29" data-name="Enter your full name" transform="translate(9478.5 -14576)"><tspan x="0" y="0">Se connecter par email</tspan></text></g><g id="email" transform="translate(82 567.757)"><path id="Tracé_10208" d="M33 81.276a4.088 4.088 0 0 1-.529 1.984L22.051 71.6l10.306-9.017A4.1 4.1 0 0 1 33 64.776v16.5zm-16.5-7.557l14.341-12.548a4.074 4.074 0 0 0-1.966-.52H4.125a4.059 4.059 0 0 0-1.965.52zm4-.759l-3.32 2.906a1.035 1.035 0 0 1-1.357 0L12.5 72.96 1.95 84.767a4.075 4.075 0 0 0 2.175.634h24.75a4.075 4.075 0 0 0 2.175-.634zM.643 62.585A4.1 4.1 0 0 0 0 64.776v16.5a4.075 4.075 0 0 0 .53 1.984L10.948 71.6z" class="cls-21" data-name="Tracé 10208"/></g></g></g></g></svg>