<svg xmlns="http://www.w3.org/2000/svg" width="276" height="39.573" viewBox="0 0 276 39.573">
  <g id="logo" transform="translate(-129.141 -623.979)">
    <g id="crowd">
      <path id="Tracé_10189" data-name="Tracé 10189" d="M148.705,647.642a7.246,7.246,0,0,0-.5-.623,4.991,4.991,0,0,1-1.956.822,11.43,11.43,0,0,1-2.514.314,6.142,6.142,0,0,1-4.778-2.121c-1.23-1.381-1.854-3.473-1.854-6.22s.606-4.831,1.8-6.211a6.1,6.1,0,0,1,4.831-2.13,7.751,7.751,0,0,1,2.046.324,4.576,4.576,0,0,1,1.653.7c.027.023.049.04.067.053a5.192,5.192,0,0,0,1.323-1.916,8.41,8.41,0,0,0,1.123-3.6c0-.707-.684-1.319-2.034-1.818a16.187,16.187,0,0,0-5.591-.887,12.022,12.022,0,0,0-9.391,4.169c-2.516,2.788-3.791,6.7-3.791,11.633s1.236,8.779,3.674,11.447a11.969,11.969,0,0,0,9.326,3.99,17.4,17.4,0,0,0,6.2-1c1.491-.572,2.247-1.284,2.247-2.118a6.956,6.956,0,0,0-.588-2.3A10.922,10.922,0,0,0,148.705,647.642Z" transform="translate(0 -0.086)" fill="#64c8ef"/>
      <path id="Tracé_10190" data-name="Tracé 10190" d="M174.939,636.315a5.043,5.043,0,0,0-2.872.982,7.252,7.252,0,0,0-2.33,2.706.757.757,0,0,1-1.43-.345,3.033,3.033,0,0,0-1.121-2.289,4.1,4.1,0,0,0-2.905-1.054c-.534,0-2.158,0-2.158,4.163a4.307,4.307,0,0,0,.356,1.878c.225.463.411.463.481.463h1.229a.756.756,0,0,1,.757.757v14.563c.458.054,1.415.124,3.406.168,1.98,0,2.924-.057,3.371-.107V646.035c0-3.036,1.559-3.489,2.488-3.489a4.067,4.067,0,0,1,1.656.409c.1.046.186.085.259.117.044-.076.1-.166.156-.274a10.555,10.555,0,0,0,.813-2.449,12.019,12.019,0,0,0,.412-2.354,2.452,2.452,0,0,0-.089-.8C177.131,636.47,175.911,636.315,174.939,636.315Z" transform="translate(-8.029 -3.003)" fill="#64c8ef"/>
      <path id="Tracé_10191" data-name="Tracé 10191" d="M195.9,636.315a9.043,9.043,0,0,0-7.115,2.895c-1.76,1.942-2.652,4.7-2.652,8.193s.892,6.25,2.652,8.191a10.16,10.16,0,0,0,14.2,0c1.745-1.942,2.631-4.7,2.631-8.193s-.885-6.252-2.631-8.195A8.974,8.974,0,0,0,195.9,636.315Zm.022,15.988c-1.519,0-3.33-.858-3.33-4.947s1.81-4.947,3.33-4.947,3.33.859,3.33,4.947S197.438,652.3,195.919,652.3Z" transform="translate(-13.874 -3.003)" fill="#64c8ef"/>
      <path id="Tracé_10192" data-name="Tracé 10192" d="M241.1,636.746l-1.6,14.533a.757.757,0,0,1-.7.672c-.017,0-.034,0-.051,0a.757.757,0,0,1-.734-.574l-3.638-14.641a20.463,20.463,0,0,0-2.369-.089,20.724,20.724,0,0,0-2.369.089l-3.684,14.825a.758.758,0,0,1-.734.573h-.042a.757.757,0,0,1-.709-.654l-2.019-14.837c-.472-.029-1.423-.064-3.339-.086-1.663,0-2.56.036-3.043.072l3.895,21.31c.278.121,1.254.381,4.5.381A17.426,17.426,0,0,0,229,658l2.272-9.98a.756.756,0,0,1,.737-.589h.017a.756.756,0,0,1,.728.62l1.827,9.98a28.655,28.655,0,0,0,8.71,0l4.286-21.254c-.607-.061-1.906-.13-4.681-.13A11.206,11.206,0,0,0,241.1,636.746Z" transform="translate(-21.163 -3.062)" fill="#64c8ef"/>
      <path id="Tracé_10193" data-name="Tracé 10193" d="M283.2,648.932H281.6a.757.757,0,0,1-.757-.757V624.619a9.4,9.4,0,0,0-.934-.129c-1.049-.1-1.981-.156-2.773-.156a11.148,11.148,0,0,0-2.842.223v8.358a.757.757,0,0,1-.757.757.8.8,0,0,1-.158-.017,11.228,11.228,0,0,0-2.347-.257,8.394,8.394,0,0,0-6.5,2.829c-1.742,1.9-2.624,4.652-2.624,8.189s.844,6.332,2.506,8.277a7.446,7.446,0,0,0,5.893,2.879,7.9,7.9,0,0,0,5.76-2.2.757.757,0,0,1,.525-.212.628.628,0,0,1,.075,0,.753.753,0,0,1,.547.322l.41.592a3.189,3.189,0,0,0,1.294.987,5.072,5.072,0,0,0,2.321.51,2.294,2.294,0,0,0,2.227-1.562,5.713,5.713,0,0,0,.57-2.169,10.594,10.594,0,0,0-.082-1.5C283.878,649.929,283.651,648.932,283.2,648.932Zm-8.9-.8a.757.757,0,0,1-.237.55,3.219,3.219,0,0,1-2.228.981,2.739,2.739,0,0,1-2.234-1.344,6.533,6.533,0,0,1-.868-3.787c0-4.427,1.8-5.357,3.307-5.357a3.73,3.73,0,0,1,1.886.56.756.756,0,0,1,.374.653Z" transform="translate(-32.322 -0.086)" fill="#64c8ef"/>
    </g>
    <g id="funding" transform="translate(254.623 623.979)">
      <path id="Tracé_10194" data-name="Tracé 10194" d="M421.084,624.137v5.525c.465.044,1.428.092,3.412.092,2.007,0,2.96-.057,3.411-.107v-5.575c-.465-.044-1.428-.092-3.411-.092A23.143,23.143,0,0,0,421.084,624.137Z" transform="translate(-325.697 -623.979)" fill="#64c8ef"/>
      <g id="Groupe_10470" data-name="Groupe 10470">
        <path id="Tracé_10195" data-name="Tracé 10195" d="M295.43,624.521a1.087,1.087,0,0,0-.389.052,1.371,1.371,0,0,0-.039.376v29.962a5.174,5.174,0,0,0,1.538.349l2.111.09a24.176,24.176,0,0,0,2.724-.2,3.326,3.326,0,0,0,1.042-.242V644.08a.757.757,0,0,1,.757-.757h5.338a9.9,9.9,0,0,0,.237-2.773,9.111,9.111,0,0,0-.254-2.773h-5.321a.757.757,0,0,1-.757-.757v-5.193a.756.756,0,0,1,.757-.757h8.075a19.4,19.4,0,0,0,0-6.549Z" transform="translate(-295.002 -624.111)" fill="#062f76"/>
        <path id="Tracé_10196" data-name="Tracé 10196" d="M341.344,651.7H340.16a.757.757,0,0,1-.757-.757v-14.49a32.468,32.468,0,0,0-6.23,0v14.171a.757.757,0,0,1-.323.62,5.179,5.179,0,0,1-2.894,1.094c-.827,0-2.214-.395-2.214-3.035V636.429a29.965,29.965,0,0,0-6.322,0v13.014c0,3.186.635,5.47,1.888,6.79s3.249,1.974,5.965,1.974a8.155,8.155,0,0,0,5.451-2.257l.031-.031a.757.757,0,0,1,.53-.217.744.744,0,0,1,.1.007.755.755,0,0,1,.554.369,4.114,4.114,0,0,0,3.855,2.129c.263,0,1.061,0,1.772-1.561a7.23,7.23,0,0,0,.57-2.739C342.136,653.085,342.033,651.7,341.344,651.7Z" transform="translate(-301.434 -626.969)" fill="#062f76"/>
        <path id="Tracé_10197" data-name="Tracé 10197" d="M366.868,635.961a9.345,9.345,0,0,0-6.341,2.277.754.754,0,0,1-.492.182.73.73,0,0,1-.134-.012.756.756,0,0,1-.528-.378,4.111,4.111,0,0,0-1.549-1.357,5.182,5.182,0,0,0-2.708-.713c-.525,0-1.288.159-1.85,1.534a6.875,6.875,0,0,0-.409,3.606c.112.611.344,1.363.8,1.363h1.184a.756.756,0,0,1,.757.757v14.254a33.806,33.806,0,0,0,3.821.249,23.636,23.636,0,0,0,2.5-.09v-14.1a.757.757,0,0,1,.285-.592,6.185,6.185,0,0,1,1.2-.661,3.886,3.886,0,0,1,1.6-.459c.707,0,2.351.3,2.351,3.034v12.771a26.868,26.868,0,0,0,6.276,0V644.359c0-3.052-.539-5.25-1.6-6.531C371,636.589,369.262,635.961,366.868,635.961Z" transform="translate(-309.067 -626.896)" fill="#062f76"/>
        <path id="Tracé_10198" data-name="Tracé 10198" d="M407.407,648.577h-1.594a.757.757,0,0,1-.757-.757V624.264c-.182-.037-.474-.083-.934-.129-1.049-.1-1.982-.157-2.773-.157a11.144,11.144,0,0,0-2.841.223v8.358a.757.757,0,0,1-.915.74,11.23,11.23,0,0,0-2.347-.256,8.389,8.389,0,0,0-6.5,2.829c-1.742,1.9-2.624,4.651-2.624,8.188s.843,6.333,2.506,8.277a7.444,7.444,0,0,0,5.893,2.879,7.9,7.9,0,0,0,5.761-2.2.757.757,0,0,1,.525-.212c.025,0,.05,0,.075,0a.756.756,0,0,1,.547.322l.41.592a3.185,3.185,0,0,0,1.293.987,5.061,5.061,0,0,0,2.321.51,2.3,2.3,0,0,0,2.227-1.561,5.731,5.731,0,0,0,.57-2.169,10.571,10.571,0,0,0-.082-1.5C408.09,649.574,407.863,648.577,407.407,648.577Zm-8.9-.8a.757.757,0,0,1-.238.55,3.215,3.215,0,0,1-2.227.981,2.738,2.738,0,0,1-2.234-1.343,6.534,6.534,0,0,1-.869-3.787c0-4.428,1.8-5.357,3.307-5.357a3.729,3.729,0,0,1,1.886.559.758.758,0,0,1,.375.653Z" transform="translate(-317.184 -623.979)" fill="#062f76"/>
        <path id="Tracé_10199" data-name="Tracé 10199" d="M421.084,636.489v21.275c.451.051,1.4.107,3.412.107a29.838,29.838,0,0,0,3.411-.123V636.474c-.465-.044-1.428-.091-3.411-.091C422.489,636.382,421.535,636.439,421.084,636.489Z" transform="translate(-325.697 -626.999)" fill="#062f76"/>
        <path id="Tracé_10200" data-name="Tracé 10200" d="M449.915,635.961a9.343,9.343,0,0,0-6.341,2.277.756.756,0,0,1-.493.182.728.728,0,0,1-.133-.012.756.756,0,0,1-.528-.378,4.111,4.111,0,0,0-1.549-1.357,5.183,5.183,0,0,0-2.709-.713c-.524,0-1.287.159-1.85,1.534a6.875,6.875,0,0,0-.409,3.606c.111.611.344,1.363.8,1.363h1.184a.756.756,0,0,1,.757.757v14.254a33.808,33.808,0,0,0,3.821.249,23.636,23.636,0,0,0,2.5-.09v-14.1a.757.757,0,0,1,.285-.592,6.185,6.185,0,0,1,1.2-.661,3.884,3.884,0,0,1,1.6-.459c.707,0,2.351.3,2.351,3.034v12.771a26.868,26.868,0,0,0,6.276,0V644.359c0-3.052-.539-5.25-1.6-6.531C454.043,636.589,452.309,635.961,449.915,635.961Z" transform="translate(-329.285 -626.896)" fill="#062f76"/>
        <path id="Tracé_10201" data-name="Tracé 10201" d="M472.108,638.964c-1.953,1.954-2.944,4.717-2.944,8.212,0,3.518.751,6.189,2.235,7.937a7.68,7.68,0,0,0,6.255,2.58,17.406,17.406,0,0,0,3.005-.352.767.767,0,0,1,.138-.013.756.756,0,0,1,.757.757v1.366c0,.946-.424,2.534-3.261,2.534a17.13,17.13,0,0,1-6.184-1.126,8.4,8.4,0,0,0-.53,3.33,4.057,4.057,0,0,0,.272,1.345,24.475,24.475,0,0,0,7.08.95,11.855,11.855,0,0,0,6.6-1.674,5.065,5.065,0,0,0,2.393-4.539V638A14.716,14.716,0,0,0,480,636.02,10.714,10.714,0,0,0,472.108,638.964Zm9.445,3.861v8.654a.757.757,0,0,1-.586.738,6.95,6.95,0,0,1-1.537.156,3.292,3.292,0,0,1-2.009-.747c-.992-.725-1.481-2.146-1.481-4.337,0-4.428,2.071-5.357,3.808-5.357a5.132,5.132,0,0,1,1.23.159A.756.756,0,0,1,481.553,642.826Z" transform="translate(-337.402 -626.91)" fill="#062f76"/>
      </g>
    </g>
  </g>
</svg>
