<svg xmlns="http://www.w3.org/2000/svg" width="263.718" height="214" viewBox="0 0 263.718 214">
  <g id="photo_" data-name="photo " transform="translate(-75 -174)">
    <g id="Groupe_10461" data-name="Groupe 10461" transform="translate(-9.121)">
      <g id="Groupe_10457" data-name="Groupe 10457" transform="translate(84.121 174)">
        <path id="Tracé_10095" data-name="Tracé 10095" d="M882.4,329.17l1.06-.659.3-.2a10.119,10.119,0,0,1-8.4-9.5,10.016,10.016,0,0,1,.875-4.609,10.136,10.136,0,0,1,6.485-5.6l-.03,4.17,2.29-4.537h.027a10.119,10.119,0,0,1,10.581,9.638v.574a12.11,12.11,0,0,0,2-2.951c.968-2.165,1-4.614.91-7.59-.152-5.9-.406-11.848-.748-17.774a10.112,10.112,0,0,1-8.979-9.573c-.015-.309,0-.616,0-.918v-.227c.017-.294.047-.586.09-.873a.927.927,0,0,1,.027-.14q.06-.364.15-.718c.02-.09.042-.177.067-.267a7.538,7.538,0,0,1,.25-.763c.03-.082.065-.165.1-.249q.107-.277.232-.546c.045-.095.087-.19.132-.282,0-.022.023-.047.035-.072h0a10.114,10.114,0,0,1,11.882-5.131l-.07,5.425,2.267-4.49a10.069,10.069,0,0,1,4.824,10.9h0c-.015.072-.038.142-.055.212-.03.135-.065.267-.1.4-.047.17-.1.334-.157.5-.042.125-.082.249-.13.372-.07.18-.147.354-.224.529-.047.1-.087.207-.137.307-.127.249-.267.516-.416.766-.052.087-.112.17-.167.249-.109.167-.217.334-.337.5-.072.1-.15.195-.227.292-.11.14-.222.279-.342.412s-.17.19-.249.282-.249.249-.382.382c-.087.082-.175.167-.264.249-.15.132-.307.249-.464.382-.08.062-.157.127-.249.187-.249.177-.486.344-.748.5-.047.03-.1.055-.147.082-.212.125-.432.249-.653.354-.095.047-.195.087-.292.132-.185.082-.369.162-.556.234-.11.042-.222.08-.334.117-.185.065-.374.122-.564.175-.115.033-.227.062-.342.09-.207.05-.417.09-.631.127h-.04q.209,3.741.372,7.505a10.112,10.112,0,0,1,14.043-4.39l-1.788,4.9,3.679-3.532a10.084,10.084,0,0,1,3.27,6.984,9.924,9.924,0,0,1-.249,2.789,10.114,10.114,0,0,1-18.6,2.756c0,.249.018.5.025.761.067,2.629.152,5.9-1.157,8.815a17.743,17.743,0,0,1-3.727,5.026q-1.379,1.407-2.846,2.721a10.149,10.149,0,0,1-3.632,3.058q-2.4,1.851-4.989,3.467l-1.073.666c-.963.6-1.95,1.21-2.918,1.848.17-.018.339-.037.511-.045a10.124,10.124,0,0,1,9.964,6.587l-6.323,5.143,6.954-1.611a10.127,10.127,0,0,1-14.506,9.114l.469.584c.312.387.621.771.923,1.152,4.115,5.21,5.258,10.157,3.223,13.928l-2.462-1.337c1.983-3.671-1-8.371-2.953-10.845-.3-.377-.6-.748-.906-1.132-2.626-3.265-5.62-6.966-5.542-11.508C870.415,336.6,877.06,332.48,882.4,329.17Z" transform="translate(-656.419 -209.204)" fill="#f2f2f2"/>
        <path id="Tracé_10096" data-name="Tracé 10096" d="M686.515,151.95l-.544-1.127c-.05-.107-.1-.217-.15-.327a10.117,10.117,0,0,0,11.419-16.09l-2.192,3.547.5-5.056-.023-.017a10.119,10.119,0,0,0-14.1,2.462c-.112.157-.209.322-.309.484a12.077,12.077,0,0,1-.1-3.564c.342-2.347,1.639-4.425,3.3-6.9,3.292-4.9,6.694-9.78,10.154-14.6a10.114,10.114,0,0,0,12.721-3.265c.18-.249.339-.514.5-.776.037-.065.075-.132.11-.2.142-.249.274-.519.392-.783l.052-.132a6.538,6.538,0,0,0,.249-.688c.03-.087.06-.172.085-.249.08-.249.15-.514.207-.773.02-.087.035-.175.052-.249.037-.195.07-.392.095-.586.015-.1.03-.207.04-.309v-.08h0a10.107,10.107,0,0,0-7.263-10.72l-2.851,4.617.5-4.988a10.052,10.052,0,0,0-9.917,6.615h0c-.025.07-.043.14-.067.21-.045.13-.087.249-.127.392s-.092.337-.135.5c-.03.127-.062.249-.09.384-.037.187-.065.377-.092.566-.017.11-.038.219-.05.329-.032.289-.052.581-.057.87v.307c0,.2,0,.4.018.6a3,3,0,0,0,.037.369c.018.177.037.357.065.531.02.127.042.249.067.374.035.177.075.354.117.529.03.117.06.234.092.352.055.19.12.379.187.569.032.095.062.192.1.287.107.277.225.551.357.818.025.05.055.1.082.15.112.219.232.437.362.648.055.09.117.18.175.269.112.167.224.332.344.5.072.095.145.187.219.279.122.152.249.3.384.449a3.242,3.242,0,0,0,.237.249c.15.152.307.3.466.444l.03.03q-2.187,3.053-4.34,6.133a10.109,10.109,0,0,0-9.5-11.224l-1.117,5.1-1.212-4.954a10.071,10.071,0,0,0-6.5,4.143,9.9,9.9,0,0,0-1.28,2.494,10.114,10.114,0,0,0,14.217,12.3c-.142.212-.287.422-.429.631-1.467,2.182-3.29,4.9-3.741,8.061a17.757,17.757,0,0,0,.449,6.236q.412,1.926.943,3.824a10.15,10.15,0,0,0,1.454,4.525c.693,1.9,1.472,3.771,2.344,5.6l.546,1.135c.5,1.02,1,2.068,1.474,3.125-.135-.1-.267-.212-.409-.312a10.127,10.127,0,0,0-11.943.217l2.579,7.732-5.006-5.088a10.121,10.121,0,0,0,7.358,15.464l-.708.249-1.4.479c-6.266,2.192-9.885,5.754-10.187,10.029l2.809.2c.294-4.163,5.33-6.53,8.308-7.57.451-.16.91-.314,1.372-.471,3.968-1.347,8.48-2.873,10.84-6.747C692.643,164.646,689.241,157.607,686.515,151.95Z" transform="translate(-512.811 -87.342)" fill="#f2f2f2"/>
        <path id="Tracé_10097" data-name="Tracé 10097" d="M192.473,120.584l-1.247-.092-.359-.035a10.117,10.117,0,0,0-8.231-17.934l1.98,3.669-4.133-2.956a.078.078,0,0,0-.025.012,10.117,10.117,0,0,0-4.9,13.446c.08.175.175.339.264.5a12.124,12.124,0,0,1-3.143-1.689c-1.876-1.454-3.021-3.619-4.342-6.288-2.6-5.3-5.138-10.683-7.592-16.085a10.114,10.114,0,0,0,3.514-12.651c-.13-.282-.277-.549-.429-.813l-.115-.195c-.155-.249-.314-.5-.486-.728-.027-.04-.06-.075-.087-.112-.15-.2-.307-.387-.466-.569l-.185-.2c-.182-.195-.369-.384-.566-.564-.065-.06-.135-.115-.2-.175-.15-.13-.3-.249-.461-.377-.082-.062-.162-.127-.249-.187l-.065-.05h0a10.109,10.109,0,0,0-12.9.97l2.579,4.774-4.088-2.913a10.054,10.054,0,0,0,.786,11.9h0c.047.057.1.107.147.162.09.1.182.207.277.3s.249.249.369.372.19.182.289.269c.145.125.294.249.444.362.087.07.172.142.262.21.234.172.476.332.726.484.087.052.177.1.267.147.172.1.347.2.526.284.112.055.224.1.337.152.165.075.327.145.5.207.12.047.237.09.359.13.17.06.342.112.514.162l.352.095c.195.047.389.087.586.122.1.02.2.042.3.057.294.045.591.08.89.1h.17c.249,0,.5.015.748,0,.1,0,.212-.012.319-.02a5.422,5.422,0,0,0,.6-.05l.349-.05c.195-.03.389-.067.581-.11.115-.022.229-.047.344-.077.207-.052.412-.115.616-.18l.042-.012q1.554,3.42,3.153,6.819a10.114,10.114,0,0,0-14.467,2.629l3.859,3.512-4.929-1.412a10.082,10.082,0,0,0,.347,7.7,9.877,9.877,0,0,0,1.521,2.35,10.114,10.114,0,0,0,17.759-6.193c.11.229.219.459.332.688,1.16,2.357,2.6,5.293,5.116,7.271a17.782,17.782,0,0,0,5.632,2.721q1.873.606,3.784,1.09a10.154,10.154,0,0,0,4.647,1c2,.349,4,.609,6.021.761l1.247.092c1.13.082,2.29.167,3.442.282-.157.065-.317.127-.471.2a10.124,10.124,0,0,0-5.759,10.471l7.982,1.624-6.907,1.8a10.122,10.122,0,0,0,17.078,1.339c-.047.249-.095.5-.145.736-.095.5-.192.97-.282,1.449-1.225,6.525.057,11.436,3.612,13.833l1.574-2.335c-3.459-2.332-2.993-7.879-2.417-10.975.087-.471.182-.948.277-1.424.823-4.12,1.738-8.79-.424-12.78C206.533,121.6,198.736,121.035,192.473,120.584Z" transform="translate(-144.957 -74.63)" fill="#f2f2f2"/>
        <path id="Tracé_10098" data-name="Tracé 10098" d="M400.34,189.289h0c-.318-35.731-31-64.609-68.808-64.629-38.137-.02-68.9,29.6-68.9,65.691V308.7c0,6.363,5.448,11.521,12.168,11.521H400.34c38.028,0,68.855-29.749,68.855-65.753S438.368,189.289,400.34,189.289Z" transform="translate(-233.28 -112.181)" fill="#64c8ef"/>
        <path id="Tracé_10113" data-name="Tracé 10113" d="M421.626,187.85h0c-.267-36.042-26.05-65.17-57.826-65.19-17.375,0-32.924,8.769-43.529,22.61a52.975,52.975,0,0,1,35.049-13.54c31.777.02,57.559,29.148,57.826,65.19h0c31.959,0,57.866,29.44,57.866,65.757a70.964,70.964,0,0,1-14.165,43.1c14.287-12.433,22.66-31.722,22.645-52.172C479.492,217.29,453.585,187.85,421.626,187.85Z" transform="translate(-243.576 -110.68)" opacity="0.1"/>
      </g>
      <g id="Groupe_10453" data-name="Groupe 10453" transform="translate(136.001 275.349)">
        <path id="Tracé_10127" data-name="Tracé 10127" d="M680.268,347.84a15.221,15.221,0,0,1,5.413,9.783c.176,1.1.258,2.239.436,3.353a19.528,19.528,0,0,0,6.658,11.742,3.567,3.567,0,0,1-3.331-.091,22.693,22.693,0,0,0,4.192,8.571,17.492,17.492,0,0,1-5.857-4.807,14.744,14.744,0,0,0,2.979,11.273,11.781,11.781,0,0,1-6.283-7.446l2.617,6.9a7.293,7.293,0,0,1-3.772-3.292,26.727,26.727,0,0,1-4.272-17.943c.324-2.642,1.045-5.237,1.163-7.9s-.477-5.514-2.381-7.377a8.509,8.509,0,0,0-5.418-2.195c-1.24-.088-4.453.9-3.237-1.331C671.036,343.678,678.1,346.186,680.268,347.84Z" transform="translate(-566.227 -343.242)" fill="#3f3d56"/>
        <path id="Tracé_10128" data-name="Tracé 10128" d="M674.06,344.278l1.569,3.753c.686.549,1.043-.527,1.284-.294a6.385,6.385,0,0,1,.823,1.023l.085-.047-2.3-5.141C674.727,342.879,674.334,343.864,674.06,344.278Z" transform="translate(-569.966 -341.748)" fill="#6c63ff"/>
        <ellipse id="Ellipse_3163" data-name="Ellipse 3163" cx="16.864" cy="16.231" rx="16.864" ry="16.231" transform="translate(78.584)" fill="#3f3d56"/>
        <path id="Tracé_10129" data-name="Tracé 10129" d="M492.738,688.888c-3.383-.25-6.859-.491-10.091.571a7.859,7.859,0,0,1-3.665.763,6.059,6.059,0,0,1-3.21-2.269,8.693,8.693,0,0,1-2.307-3.638,5,5,0,0,1,.406-3.24,1.332,1.332,0,0,1,.3-.45,1.484,1.484,0,0,1,1.051-.233c3.172.134,6.362.916,9.487.362,1.827-.324,5.432-1.668,6.5.642C491.663,682.353,490.908,688.753,492.738,688.888Z" transform="translate(-424.326 -586.102)" fill="#575a89"/>
        <path id="Tracé_10130" data-name="Tracé 10130" d="M366.013,627.013a93.685,93.685,0,0,0-12.274,4.612l-8.938,3.841,2.642,6.54c.228.549-.2.516.346.763a4.765,4.765,0,0,0,2.639.414c6.022-2.3,12.949-.985,19.007-3.194,2.23-.823,4.316-2.1,6.661-2.469,2.743-.442,5.649.406,8.3-.431a1.371,1.371,0,0,0,.735-.447,1.388,1.388,0,0,0,.154-.883,14.694,14.694,0,0,0-2.1-6.329c-.727-1.284-1.888-3.841-3.333-4.466-1.632-.7-4.82.324-6.521.576A62.8,62.8,0,0,0,366.013,627.013Z" transform="translate(-331.039 -545.94)" fill="#ffc1c7"/>
        <path id="Tracé_10131" data-name="Tracé 10131" d="M315.009,670.778c-3.32.689-6.738,1.421-9.542,3.328a7.855,7.855,0,0,1-3.314,1.742,6.046,6.046,0,0,1-3.709-1.3,8.666,8.666,0,0,1-3.221-2.862,5.013,5.013,0,0,1-.5-3.229,1.348,1.348,0,0,1,.167-.513,1.47,1.47,0,0,1,.949-.513,55.455,55.455,0,0,0,10.113-3.479c1.668-.823,3.868-1.888,5.531.038C312.17,664.792,313.207,671.165,315.009,670.778Z" transform="translate(-294.642 -573.65)" fill="#575a89"/>
        <path id="Tracé_10132" data-name="Tracé 10132" d="M621.282,448.919a5.238,5.238,0,0,0-.261,2v5.065a6.335,6.335,0,0,0,.255,2.156A5.594,5.594,0,0,0,623,460.338a23.735,23.735,0,0,0,7.794,4.494,8.316,8.316,0,0,0,4.955.469,8.489,8.489,0,0,0,2.571-1.394,29.063,29.063,0,0,0,5.687-5.473c1.646-2.1,3.075-4.82,2.252-7.369a8.961,8.961,0,0,1-6.667-5.986,8.479,8.479,0,0,0-1.13-2.925c-1.416-1.75-4.159-1.259-6.31-.6-2.088.634-5.715,1-7.262,2.593-.612.628-.845,1.66-1.443,2.346C622.733,447.326,621.721,447.847,621.282,448.919Z" transform="translate(-531.471 -412.584)" fill="#ffc1c7"/>
        <path id="Tracé_10133" data-name="Tracé 10133" d="M621.282,448.919a5.238,5.238,0,0,0-.261,2v5.065a6.335,6.335,0,0,0,.255,2.156A5.594,5.594,0,0,0,623,460.338a23.735,23.735,0,0,0,7.794,4.494,8.316,8.316,0,0,0,4.955.469,8.489,8.489,0,0,0,2.571-1.394,29.063,29.063,0,0,0,5.687-5.473c1.646-2.1,3.075-4.82,2.252-7.369a8.961,8.961,0,0,1-6.667-5.986,8.479,8.479,0,0,0-1.13-2.925c-1.416-1.75-4.159-1.259-6.31-.6-2.088.634-5.715,1-7.262,2.593-.612.628-.845,1.66-1.443,2.346C622.733,447.326,621.721,447.847,621.282,448.919Z" transform="translate(-531.471 -412.584)" opacity="0.1"/>
        <circle id="Ellipse_3164" data-name="Ellipse 3164" cx="13.6" cy="13.6" r="13.6" transform="translate(86.11 8.977)" fill="#ffc1c7"/>
        <path id="Tracé_10134" data-name="Tracé 10134" d="M747.991,528.874c.708,1.01,1.322,2.082,2.06,3.07a30.133,30.133,0,0,0,5.487,5.213l11.226,8.988c3.133,2.51,6.442,5.1,10.39,5.83,1.347.25,2.941.178,3.805-.881,1.01-1.243.414-3.2-.763-4.285a15.522,15.522,0,0,0-4.214-2.241c-6.135-2.851-9.849-9.054-14.168-14.266-3.794-4.573-8.253-8.546-12.39-12.809-4.39-4.532-7.863-9.792-12.052-14.431a15.211,15.211,0,0,0-4.735,7.682c-.4,2.349.941,4.069,2.469,5.7C739.168,520.824,744.529,523.946,747.991,528.874Z" transform="translate(-612.421 -457.655)" fill="#ffc1c7"/>
        <path id="Tracé_10135" data-name="Tracé 10135" d="M735.016,480.2c-.049,3.877-3.344,6.96-4.192,10.741a12.709,12.709,0,0,1-.445,1.844,6.417,6.417,0,0,1-1.717,2.236,8.552,8.552,0,0,1-3.989,2.368c-.184.036.549-12.711.807-13.893C726.278,479.665,731.822,480.543,735.016,480.2Z" transform="translate(-606.672 -441.067)" fill="#ff6584"/>
        <path id="Tracé_10136" data-name="Tracé 10136" d="M505.477,465.028a16.413,16.413,0,0,0,1.073,6.719,7.914,7.914,0,0,0,4.782,4.6,12.029,12.029,0,0,0,3.591.324,9.266,9.266,0,0,0,2.886-.359,6.989,6.989,0,0,0,3.863-4.159c.741-1.805,1.056-3.753,1.665-5.6.318-.974.908-2.066,1.921-2.156a2.889,2.889,0,0,1,1.772.686l5.487,3.717c1.1,6.269-.027,12.79-2.3,18.733a28.459,28.459,0,0,0-1.827,5.407c-.639,3.868.982,7.7,2.291,11.4.955,2.694,1.756,5.44,2.56,8.184l2.022,6.916a10.294,10.294,0,0,1,.6,4.938c-.346,1.646-1.813,3.18-3.479,2.988-.464-.052-.966-.225-1.372,0-.99.549.112,2.038.022,3.172-.115,1.465-2.1,1.781-3.567,1.748-7.292-.162-14.491,1.41-21.72,2.368s-14.787,1.268-21.613-1.3a53.8,53.8,0,0,1-8.316-4.288c-5.089-3.018-10.469-6.332-12.969-11.693-1.1-2.346-1.572-4.977-2.971-7.152-.768-1.2-1.83-2.3-2.06-3.7-.324-1.981,1.2-3.882,3.018-4.716a16.019,16.019,0,0,1,5.91-.966,10.976,10.976,0,0,0,5.761-1.465c1.791-1.226,2.889-3.4,4.881-4.269a17.772,17.772,0,0,1,2.689-.678,12.764,12.764,0,0,0,3.454-1.55,25.461,25.461,0,0,0,11.638-24.944,19.882,19.882,0,0,1-.274-2.908.875.875,0,0,1,.093-.483.768.768,0,0,1,.4-.261c1.267-.466,2.705-.217,3.989-.637.971-.318,1.783-1,2.719-1.407a2.518,2.518,0,0,1,2.856.274A3.387,3.387,0,0,1,505.477,465.028Z" transform="translate(-413.016 -427.802)" fill="#ff6584"/>
        <path id="Tracé_10137" data-name="Tracé 10137" d="M609.654,373.9c-.968-3.457-5.366-5.514-6.014-9.029a6.068,6.068,0,0,1,1.808-5.119,16.747,16.747,0,0,1,4.776-3.207c2.546-1.281,5.325-2.469,8.231-2.209,3,.274,6.823.8,9.15,2.645,1.646,1.3,2.1,4.006,2.609,5.948a4.886,4.886,0,0,1-2.033,5.213c-1.92,1.278-4.516,1.185-6.905,1.193s-5.056.3-6.53,2.033a17.424,17.424,0,0,0-1.7,3.259,3.33,3.33,0,0,1-2.966,1.995Z" transform="translate(-518.811 -349.706)" fill="#3f3d56"/>
        <path id="Tracé_10139" data-name="Tracé 10139" d="M566.012,474.928a29.174,29.174,0,0,0-1.975,2.979,12.458,12.458,0,0,1-3.567,3.5c1.58-.165,3.366-.274,4.543.8,1,.9,1.226,2.348,1.874,3.523a4.335,4.335,0,0,0,2.269,2.027,3.15,3.15,0,0,0,2.958-.4c1.27-.988,1.41-2.823,1.443-4.434l.058-2.9a4.556,4.556,0,0,0-.691-3.081,6.422,6.422,0,0,0-1.624-1.136C569.12,474.467,568.462,472.116,566.012,474.928Z" transform="translate(-487.54 -436.283)" fill="#ff6584"/>
        <path id="Tracé_10140" data-name="Tracé 10140" d="M600.235,403.7c.37-1.531-.667-3.122-.39-4.664a2.859,2.859,0,0,1,1.3-1.9c.381-.233.823-.373,1.21-.587a3.644,3.644,0,0,0,1.536-4.486,6.287,6.287,0,0,0-3.092-2.776c-1.331-.694-2.952-1.273-4.28-.576-1.613.848-1.841,3.018-1.863,4.851a14.621,14.621,0,0,0,.4,4.455,11.97,11.97,0,0,0,2.387,4.187C597.64,402.4,599.986,404.745,600.235,403.7Z" transform="translate(-512.345 -374.446)" fill="#3f3d56"/>
        <path id="Tracé_10142" data-name="Tracé 10142" d="M578.053,391.648l.362,4.052c-.354.8-1.166.019-1.27.34a6.283,6.283,0,0,0-.274,1.292h-.1l-.365-5.621C576.813,390.721,577.62,391.415,578.053,391.648Z" transform="translate(-499.107 -376.48)" fill="#6c63ff"/>
        <ellipse id="Ellipse_3165" data-name="Ellipse 3165" cx="2.667" cy="2.667" rx="2.667" ry="2.667" transform="translate(160.818 70.456)" fill="#3f3d56"/>
        <path id="Tracé_10143" data-name="Tracé 10143" d="M873.525,675.211a14.24,14.24,0,0,1-.584,5.781,4.273,4.273,0,0,1-.384,1.015,10.725,10.725,0,0,1-.653.881,7.684,7.684,0,0,0-.955,2.063,57.989,57.989,0,0,0-1.7,6.066.414.414,0,0,0,0,.258c.063.148.274.17.422.167h2.093c.077-.143-.063-.3-.151-.436-.3-.464,0-1.065.25-1.55a16.488,16.488,0,0,0,1.476-3.731,10.058,10.058,0,0,1,.494-1.621,16.184,16.184,0,0,1,1.078-1.748,14.809,14.809,0,0,0,1.023-2.159,13.908,13.908,0,0,0,1.01-3.166,12.616,12.616,0,0,0-.022-3.12.2.2,0,0,0-.228-.225l-2.809-.143c-.579-.03-.716-.156-.628.412C873.32,674.368,873.465,674.783,873.525,675.211Z" transform="translate(-711.588 -581.341)" fill="#575a89"/>
        <path id="Tracé_10144" data-name="Tracé 10144" d="M873.525,675.211a14.24,14.24,0,0,1-.584,5.781,4.273,4.273,0,0,1-.384,1.015,10.725,10.725,0,0,1-.653.881,7.684,7.684,0,0,0-.955,2.063,57.989,57.989,0,0,0-1.7,6.066.414.414,0,0,0,0,.258c.063.148.274.17.422.167h2.093c.077-.143-.063-.3-.151-.436-.3-.464,0-1.065.25-1.55a16.488,16.488,0,0,0,1.476-3.731,10.058,10.058,0,0,1,.494-1.621,16.184,16.184,0,0,1,1.078-1.748,14.809,14.809,0,0,0,1.023-2.159,13.908,13.908,0,0,0,1.01-3.166,12.616,12.616,0,0,0-.022-3.12.2.2,0,0,0-.228-.225l-2.809-.143c-.579-.03-.716-.156-.628.412C873.32,674.368,873.465,674.783,873.525,675.211Z" transform="translate(-711.588 -581.341)" opacity="0.1"/>
        <path id="Tracé_10145" data-name="Tracé 10145" d="M884.233,662.042a3.816,3.816,0,0,0-.979,2.744,3.881,3.881,0,0,0,1.248,1.863c2.143,2.151,4.252,4.543,4.982,7.492.187.763.274,1.547.439,2.316a25.329,25.329,0,0,0,1.344,4.052l1.4,3.536a2.115,2.115,0,0,0,2.019-1.339.875.875,0,0,1-.53-.343,6.489,6.489,0,0,1-.872-2.894c-.167-1.114-.4-2.217-.623-3.32l-1-4.875c-.115-.565-.231-1.128-.381-1.685-.584-2.148-1.69-4.178-1.86-6.4a1.493,1.493,0,0,0-.274-.927,1.372,1.372,0,0,0-.96-.318A12.482,12.482,0,0,0,884.233,662.042Z" transform="translate(-721.741 -572.87)" fill="#575a89"/>
        <path id="Tracé_10146" data-name="Tracé 10146" d="M868.68,736.084a2.039,2.039,0,0,0-.464-.06.963.963,0,0,0-.757.414,1.854,1.854,0,0,0-.2.45l-.2.579a.639.639,0,0,0-.027.524.548.548,0,0,0,.274.211,5.075,5.075,0,0,0,1.575.274c.518.052,1.031.143,1.542.239.176.033.351.066.529.085a6.5,6.5,0,0,0,1.2-.036l.411-.041a1.436,1.436,0,0,0,.4-.074.519.519,0,0,0,.3-.274.483.483,0,0,0-.381-.6c-.11-.022-.222,0-.332-.025a1.512,1.512,0,0,1-.359-.11,6.965,6.965,0,0,1-1.52-.741c-.129-.09-.274-.217-.25-.373a.838.838,0,0,1,.066-.192.711.711,0,0,0,0-.5c-.027-.069-.074-.14-.145-.148-.2-.025-.173.261-.2.373a.2.2,0,0,1-.25.151A11.18,11.18,0,0,1,868.68,736.084Z" transform="translate(-709.96 -626.459)" fill="#3f3d56"/>
        <path id="Tracé_10147" data-name="Tracé 10147" d="M916.082,737.431a1.323,1.323,0,0,0,.274.8.648.648,0,0,0,.2.162.8.8,0,0,0,.368.058,2.915,2.915,0,0,0,1.037-.209,3.53,3.53,0,0,1,.357-.134,4.529,4.529,0,0,1,.466-.069,12.039,12.039,0,0,0,1.756-.636,4.235,4.235,0,0,0,.518-.17,2.413,2.413,0,0,0,.615-.48,1.575,1.575,0,0,0,.274-.337,1.5,1.5,0,0,0,.121-.68.192.192,0,0,0-.019-.1.137.137,0,0,0-.066-.052.957.957,0,0,0-.6,0,10.569,10.569,0,0,1-2.195.082.451.451,0,0,1-.208-.041.464.464,0,0,1-.132-.151l-.274-.447c-.08-.129-.206-.274-.351-.233a.274.274,0,0,0-.156.3,1.575,1.575,0,0,1,.016.359.482.482,0,0,1-.239.31,1.465,1.465,0,0,1-.373.145,2.834,2.834,0,0,0-1.21.549C916.055,736.662,916.069,737.143,916.082,737.431Z" transform="translate(-745.585 -625.806)" fill="#3f3d56"/>
        <path id="Tracé_10148" data-name="Tracé 10148" d="M907.992,627.982a1.693,1.693,0,0,0,.409-.442,1.816,1.816,0,0,0,.173-.612l.118-.741a2.224,2.224,0,0,1,.411-1.152.775.775,0,0,1,1.1-.115.971.971,0,0,1,.2.5,3.6,3.6,0,0,1-.883,2.985c-.335.368-.744.658-1.1,1.007-.31.3-.576.639-.862.966a11.932,11.932,0,0,1-2.346,2.049,10.693,10.693,0,0,0,0-1.7c-.06-.4-.222-.615.162-.875A28.845,28.845,0,0,0,907.992,627.982Z" transform="translate(-737.64 -545.951)" fill="#fbbebe"/>
        <path id="Tracé_10149" data-name="Tracé 10149" d="M886.779,613.6a1.371,1.371,0,0,1-.518,1.034q1.4.486,2.744,1.075a.96.96,0,0,1-.236-.667,3.37,3.37,0,0,1,.516-1.8.428.428,0,0,0,.085-.236c0-.176-.219-.258-.392-.3a9.82,9.82,0,0,0-1.783-.258c-.258,0-.549-.091-.5.239A3.612,3.612,0,0,1,886.779,613.6Z" transform="translate(-723.949 -537.025)" fill="#fbbebe"/>
        <circle id="Ellipse_3166" data-name="Ellipse 3166" cx="2.181" cy="2.181" r="2.181" transform="translate(162.448 72.423)" fill="#fbbebe"/>
        <path id="Tracé_10150" data-name="Tracé 10150" d="M888.514,621.812a2.65,2.65,0,0,0-.274-.464,9.585,9.585,0,0,0-1.309-1.6,8.264,8.264,0,0,0-1.243-.911,2.765,2.765,0,0,0-.779-.376,3,3,0,0,0-.5-.069l-.568-.044a.46.46,0,0,0-.151,0,.318.318,0,0,0-.189.384.929.929,0,0,0,.252.4c.025,1.155-.488,2.3-.549,3.449-.121,2.019,1.1,3.9,1.21,5.915a.7.7,0,0,1-.027.274c-.017.041-.041.08-.06.121a1.141,1.141,0,0,0-.069.409,2.074,2.074,0,0,1-.623,1.3.917.917,0,0,0,.346.274,6.1,6.1,0,0,0,.774.184,6.033,6.033,0,0,0,2.022.346,1.8,1.8,0,0,0,.156-.587c.1-.061.208.068.222.181s0,.247.071.329a.334.334,0,0,0,.274.055,11.945,11.945,0,0,0,1.229-.288,2.321,2.321,0,0,1,1.248,0,.329.329,0,0,0-.019-.365,1.637,1.637,0,0,1-.195-.335.739.739,0,0,1-.025-.219,9.367,9.367,0,0,0,0-1.92c-.038-.184-.1-.362-.135-.549a4.823,4.823,0,0,1-.052-1.1c0-.37-.036-.76-.041-1.13a4.26,4.26,0,0,0-.03-.458c-.025-.159-.074-.313-.088-.475-.041-.406.124-.823.1-1.218C889.477,622.711,888.758,622.374,888.514,621.812Z" transform="translate(-721.728 -541.306)" fill="#6c63ff"/>
        <path id="Tracé_10151" data-name="Tracé 10151" d="M876.854,629.8a23.684,23.684,0,0,0-1.043,4.365l-.6,3.465a16.545,16.545,0,0,0-.332,2.957,3.144,3.144,0,0,1-.058.823,4.34,4.34,0,0,1-.51.966,3.2,3.2,0,0,0-.346,2.159c.063.31.23.661.549.7a.754.754,0,0,0,.634-.39,4.938,4.938,0,0,0,.667-1.646,37.159,37.159,0,0,0,1.037-5.761,5.434,5.434,0,0,1,.1-.73,5.218,5.218,0,0,1,.252-.73l.686-1.7a27.132,27.132,0,0,1,1.783-3.841c-.716-.206-1.462-.447-2.178-.653A2.075,2.075,0,0,0,876.854,629.8Z" transform="translate(-714.988 -549.599)" fill="#fbbebe"/>
        <path id="Tracé_10152" data-name="Tracé 10152" d="M884.4,629.377a8.137,8.137,0,0,0-1.531-.088.33.33,0,0,1-.206-.055c-.1-.088-.06-.255,0-.381l.247-.6a.857.857,0,0,1,.2-.329.824.824,0,0,1,.469-.159,4.189,4.189,0,0,1,1.646.063,1.948,1.948,0,0,1,1.259.974.667.667,0,0,1,.014.653c-.195.274-.631.59-.955.436A5.846,5.846,0,0,0,884.4,629.377Z" transform="translate(-721.294 -548.111)" fill="#6c63ff"/>
        <path id="Tracé_10153" data-name="Tracé 10153" d="M880.723,593.11a2.228,2.228,0,0,0-1.215.349,2.667,2.667,0,0,0-2.617-.612,1.525,1.525,0,1,0-1.764,1.764,2.635,2.635,0,0,0-.118.785,2.667,2.667,0,0,0,5.237.713,2.268,2.268,0,0,0,.477.049,1.565,1.565,0,1,0,0-3.048Z" transform="translate(-714.953 -521.891)" fill="#3f3d56"/>
        <path id="Tracé_10154" data-name="Tracé 10154" d="M898.061,603.869a2.253,2.253,0,0,1-.477-.049,2.644,2.644,0,0,1-.354.768,2.435,2.435,0,0,0,.45.044,1.8,1.8,0,0,0,1.893-1.372A2.094,2.094,0,0,1,898.061,603.869Z" transform="translate(-731.91 -530.365)" opacity="0.1"/>
        <path id="Tracé_10155" data-name="Tracé 10155" d="M878.064,598.6a2.667,2.667,0,0,1-2.549-3.451,1.525,1.525,0,0,1-1.262-1.5,1.821,1.821,0,0,1,.025-.274,1.525,1.525,0,0,0,.856,2.538,2.634,2.634,0,0,0-.118.785,2.667,2.667,0,0,0,5.213.8,2.665,2.665,0,0,1-2.165,1.108Z" transform="translate(-714.961 -523.188)" opacity="0.1"/>
      </g>
      <g id="Groupe_10458" data-name="Groupe 10458" transform="translate(95.146 287.887)">
        <rect id="Rectangle_1436" data-name="Rectangle 1436" width="20.463" height="42.467" transform="translate(15.807 50.735)" fill="#3f3d56"/>
        <rect id="Rectangle_1437" data-name="Rectangle 1437" width="20.463" height="42.467" transform="translate(15.807 50.735)" opacity="0.1"/>
        <path id="Tracé_10099" data-name="Tracé 10099" d="M131.94,595.88h23.368v33.005H140.975a9.022,9.022,0,0,1-9.021-9.022V595.88Z" transform="translate(-102.909 -534.614)" fill="#5f5478"/>
        <rect id="Rectangle_1438" data-name="Rectangle 1438" width="25.025" height="25.025" transform="translate(42.065 41.31)" fill="#d4a1a1"/>
        <rect id="Rectangle_1439" data-name="Rectangle 1439" width="25.025" height="25.025" transform="translate(42.065 47.254)" opacity="0.1"/>
        <path id="Tracé_10100" data-name="Tracé 10100" d="M474.386,593.79s24.27,11.156,23.517,16.734a7.168,7.168,0,0,1-5.721,6.331l-14.621-7.085-10.251-8.141Z" transform="translate(-380.792 -553.211)" fill="#5f5478"/>
        <path id="Tracé_10101" data-name="Tracé 10101" d="M384.091,616.026a6.466,6.466,0,0,1-.13,3.3c-.44,1.14-1.419,1.98-1.956,3.08a5.76,5.76,0,0,0,.385,5.237,13.871,13.871,0,0,0,3.716,3.961,22.012,22.012,0,0,0,7.041,3.947c3.1.933,6.41.792,9.644.642a4.837,4.837,0,0,0,1.571-.251,4.737,4.737,0,0,0,.99-.6,17.266,17.266,0,0,0,4.548-4.256,8.962,8.962,0,0,0,.783-8.163c-1.063-2.59-3.325-4.6-4.095-7.294-.559-1.954-.264-4.035-.271-6.069a1.923,1.923,0,0,0-.191-.99,2.011,2.011,0,0,0-1.558-.708,73.32,73.32,0,0,0-12.025-.772,37.217,37.217,0,0,0-6.064.684c-1.08.22-3.681.418-3.961,1.807-.163.829.574,2.075.8,2.86A29.638,29.638,0,0,1,384.091,616.026Z" transform="translate(-317.05 -559.759)" fill="#fbbebe"/>
        <path id="Tracé_10102" data-name="Tracé 10102" d="M384.091,616.026a6.466,6.466,0,0,1-.13,3.3c-.44,1.14-1.419,1.98-1.956,3.08a5.76,5.76,0,0,0,.385,5.237,13.871,13.871,0,0,0,3.716,3.961,22.012,22.012,0,0,0,7.041,3.947c3.1.933,6.41.792,9.644.642a4.837,4.837,0,0,0,1.571-.251,4.737,4.737,0,0,0,.99-.6,17.266,17.266,0,0,0,4.548-4.256,8.962,8.962,0,0,0,.783-8.163c-1.063-2.59-3.325-4.6-4.095-7.294-.559-1.954-.264-4.035-.271-6.069a1.923,1.923,0,0,0-.191-.99,2.011,2.011,0,0,0-1.558-.708,73.32,73.32,0,0,0-12.025-.772,37.217,37.217,0,0,0-6.064.684c-1.08.22-3.681.418-3.961,1.807-.163.829.574,2.075.8,2.86A29.638,29.638,0,0,1,384.091,616.026Z" transform="translate(-317.05 -559.759)" opacity="0.1"/>
        <circle id="Ellipse_3160" data-name="Ellipse 3160" cx="18.996" cy="18.996" r="18.996" transform="translate(21.642 10.44)" fill="#d4a1a1"/>
        <circle id="Ellipse_3161" data-name="Ellipse 3161" cx="18.996" cy="18.996" r="18.996" transform="translate(58.326 13.48)" fill="#fbbebe"/>
        <path id="Tracé_10103" data-name="Tracé 10103" d="M394.882,445.679c-.819.361-1.523.94-2.319,1.347-2.291,1.168-5.041.792-7.552.233-1.331-.3-2.893-.88-3.147-2.218-.271-1.421,1.135-2.57,1.584-3.943a8.8,8.8,0,0,0-6.181,1.127c-2.313,1.415-4,3.921-6.623,4.608a2.421,2.421,0,0,1-1.485,0,2.233,2.233,0,0,1-1.111-1.151c-1.2-2.484.44-5.327.852-8.058.337-2.275-.121-4.9,1.417-6.614,1.589-1.76,4.359-1.507,6.678-2.02a9.272,9.272,0,0,0,4.255-2.214,7.672,7.672,0,0,1,1.061-.906,4.209,4.209,0,0,1,1.6-.533,9.374,9.374,0,0,1,6.315,1.272c1.32.808,2.451,1.956,3.93,2.387a17.17,17.17,0,0,0,2.447.356,9.323,9.323,0,0,1,7.384,6.234,6.917,6.917,0,0,0,.678,1.76c.689,1.05,2.027,1.443,2.97,2.271a7.364,7.364,0,0,1,1.844,3.252,36.1,36.1,0,0,1,1.846,9.943c.079,1.842-.04,3.844-1.219,5.259a12.057,12.057,0,0,0-.792.924c-.816,1.221-.376,2.86-.554,4.31a5.015,5.015,0,0,1-1.569,3.054,1.16,1.16,0,0,1-.792.381,1.14,1.14,0,0,1-.816-.61,23.067,23.067,0,0,1-1.34-3.479c-.5-1.144-1.558-2.238-2.792-2.064-.315.044-.612.167-.926.22a2.588,2.588,0,0,1-2.337-1.065,5.96,5.96,0,0,1-1-2.478,26.745,26.745,0,0,1-.3-7.6c.077-.981.642-2.726.381-3.655S395.645,445.34,394.882,445.679Z" transform="translate(-305.96 -425.229)" fill="#fff"/>
        <path id="Tracé_10104" data-name="Tracé 10104" d="M318.476,667a14.619,14.619,0,0,1-7.169-6.161c-1.2-2.06-1.895-4.4-3.261-6.363-1.991-2.86-5.747-1.419-9.226-1.437-4.456-.022-8.1-.609-11.756,1.934-2.438,1.692-5.061,3.644-5.721,6.533-.583,2.5.458,5.175-.125,7.682-.394,1.69.108,3.243-.178,4.957-.4,2.42-.726,4.68.513,6.795l4.277,7.3,46.428.176c-.029,0-.086.086-.114.086H365.39a16.131,16.131,0,0,0-.66-4.608,32.57,32.57,0,0,0-2.044-4.436L354.3,663.44c-1.6-3.063-3.356-6.284-6.348-8.014a42.639,42.639,0,0,0-5.257-2.075c-2.277-.931-2.887-.279-5.263-.917s-6.786-2.3-8.082-.22c-1.021,1.646-.722,3.754-1.1,5.653a12.7,12.7,0,0,1-2.273,4.722,14.128,14.128,0,0,1-3.3,3.521C321.354,667.035,319.981,667.6,318.476,667Z" transform="translate(-239.576 -594.184)" fill="#3f3d56"/>
        <path id="Tracé_10105" data-name="Tracé 10105" d="M396.8,764.73s-15.678,1.206-15.528,4.522c0,0,14.925,4.071,14.925,3.921S396.8,764.73,396.8,764.73Z" transform="translate(-317.531 -682.734)" fill="#fbbebe"/>
        <path id="Tracé_10106" data-name="Tracé 10106" d="M314.872,713.327s1.206,9.5,5.576,11.305,18.243,2.11,18.243,2.11l9.345,6.031H301.906s-2.11-24.864,0-24.864S314.872,713.327,314.872,713.327Z" transform="translate(-256.45 -638.417)" fill="#3f3d56"/>
        <path id="Tracé_10107" data-name="Tracé 10107" d="M453.961,716.08l10.861,9.046-29.546.755s-4.286,5.281-2.519,6.786,10.056,2.561,10.056,2.561l7.688,3.919,32.315-.04L472.059,719.7Z" transform="translate(-353.383 -644.789)" fill="#3f3d56"/>
        <path id="Tracé_10108" data-name="Tracé 10108" d="M453.961,716.08l10.861,9.046-29.546.755s-4.286,5.281-2.519,6.786,10.056,2.561,10.056,2.561l7.688,3.919,32.315-.04L472.059,719.7Z" transform="translate(-353.383 -644.789)" opacity="0.1"/>
        <path id="Tracé_10109" data-name="Tracé 10109" d="M360.964,578.07,342.27,593.446,355.989,604.3l15.528-20.351Z" transform="translate(-254.63 -520.723)" fill="#5f5478"/>
        <path id="Tracé_10110" data-name="Tracé 10110" d="M506.671,705.748s12.511-2.262,14.773-3.318,11.31-4.975,8.889-1.958-3.466,3.164-3.466,3.164,9.345.755,9.044,2.563-1.355,2.11-1.355,2.11,3.919,2.262,3.015,2.86-.3,2.713-.453,3.166,1.056,2.86-.15,3.166-14.021-.3-16.723-.9-14.925.15-14.925.15Z" transform="translate(-408.92 -631.742)" fill="#e0aaaa"/>
        <path id="Tracé_10111" data-name="Tracé 10111" d="M239.741,636.27a10.9,10.9,0,0,0,0,12.965c4.823,7.085,14.773,15.226,20.2,16.582s41.457,1.961,41.457,1.961,1.659-16.283,0-16.886-31.056,1.358-35.127-1.657-16.283-11.759-19.9-12.06A65.642,65.642,0,0,1,239.741,636.27Z" transform="translate(-213.876 -582.54)" fill="#5f5478"/>
        <path id="Tracé_10112" data-name="Tracé 10112" d="M182.782,425.094a22.659,22.659,0,0,0-4.1-1.283c-6.918-1.454-13.581,6.678-11.93,13.44.66,2.728,2.522,5.254,2.227,8.049-.277,2.656-2.449,4.786-2.9,7.417a2.915,2.915,0,0,0,.165,1.782c.418.847,1.4,1.283,1.89,2.088.83,1.355-.1,3.219-1.479,4.007a10.982,10.982,0,0,1-4.621.948,32.779,32.779,0,0,0-5.853,1.023,8.242,8.242,0,0,0-3.061,1.364c-2.077,1.663-2.363,4.795-1.6,7.345s2.337,4.766,3.474,7.171,1.818,5.281.7,7.69c-1.175,2.524-4.2,4.322-4.073,7.1a19.828,19.828,0,0,1,.257,2.233c-.117,1.73-2.044,2.911-3.769,2.733a6.792,6.792,0,0,1-4.3-2.7,14.523,14.523,0,0,1-3.248-7.825c-.268-2.79.277-5.655-.378-8.381-.609-2.528-2.189-4.691-3.551-6.907a46.3,46.3,0,0,1-6.834-23.7,20.047,20.047,0,0,1,.748-6.26c.8-2.519,2.359-4.72,3.521-7.1,1.23-2.515,4.106-9.873,6.7-16.687a16.687,16.687,0,0,1,16.919-10.709,10.736,10.736,0,0,0,2.823-.066c1.677-.326,3.217-1.151,4.869-1.6a11.347,11.347,0,0,1,12.37,5.087,40.379,40.379,0,0,0,2,3.668,30.265,30.265,0,0,0,2.566,2.7,13.366,13.366,0,0,1,1.3,1.609" transform="translate(-129.792 -402.889)" fill="#3f3d56"/>
      </g>
      <g id="Groupe_10460" data-name="Groupe 10460" transform="translate(200.517 289.912)">
        <path id="Tracé_10156" data-name="Tracé 10156" d="M537.6,505.694a16.828,16.828,0,0,0-2.195,4.439,9.487,9.487,0,0,0,1.4,7.534,12.849,12.849,0,0,0,6.162,4.735c.977.373,1.989.647,2.955,1.048,4.291,1.781,7.476,5.978,12.047,6.823a3.411,3.411,0,0,0,1.942-.093c1.46-.62,1.72-2.54,1.764-4.115a4.885,4.885,0,0,0-.313-2.324,4.14,4.14,0,0,0-1.259-1.372c-3.27-2.5-7.454-3.457-11.037-5.487-1.682-.949-3.358-2.357-3.583-4.274-.244-2.1,1.309-3.918,2.543-5.635,3.034-4.222,5.613-11.054,4.156-16.31-2.052-7.407-7.106,3.051-8.456,5.213Q540.67,500.781,537.6,505.694Z" transform="translate(-533.671 -461.324)" fill="#ffc1c7"/>
        <path id="Tracé_10157" data-name="Tracé 10157" d="M553.361,424.535c-1.237,3.742-5.487,5.3-8.461,7.956a3.887,3.887,0,0,0,.222-1.32,11.285,11.285,0,0,1,.038-3.248,12.428,12.428,0,0,1-6.31,4.038l-1.2-12.107a14.027,14.027,0,0,1-7.849,8.639c3.407-6.1,4.444-13.2,5.542-20.1a49.973,49.973,0,0,1,1.141-5.761,25.928,25.928,0,0,1,3.1-6.941,16.643,16.643,0,0,1,3.018-3.566,4.831,4.831,0,0,1,3.808-1.432h0c2.244.423,1.342,1.523,0,2.532-1.065.8-2.409,1.539-2.727,1.857a3.238,3.238,0,0,0-.787,1.295c-.516,1.572.038,3.567.713,5.191a74.605,74.605,0,0,0,6.277,11.967A32.6,32.6,0,0,1,552.9,418.7,8.367,8.367,0,0,1,553.361,424.535Z" transform="translate(-529.8 -390.643)" fill="#3f3d56"/>
      </g>
    </g>
  </g>
</svg>
